<?xml version="1.0" encoding="UTF-8"?>
<svg id="Layer_2" data-name="Layer 2" xmlns="http://www.w3.org/2000/svg" viewBox="0 0 343.47 92">
  <defs>
    <style>
      .cls-1, .cls-2 {
        fill-rule: evenodd;
      }

      .cls-1, .cls-3 {
        fill: #0060af;
      }

      .cls-2, .cls-4 {
        fill: #ed1c24;
      }
    </style>
  </defs>
  <g id="Layer_1-2" data-name="Layer 1">
    <g>
      <polygon class="cls-3" points="110.8 92 110.8 67.84 102.19 67.84 102.19 62.93 125.26 62.93 125.26 67.84 116.69 67.84 116.69 92 110.8 92"/>
      <polygon class="cls-3" points="154.24 92 154.24 62.93 160.13 62.93 160.13 74.38 171.58 74.38 171.58 62.93 177.47 62.93 177.47 92 171.58 92 171.58 79.29 160.13 79.29 160.13 92 154.24 92"/>
      <polygon class="cls-3" points="208.73 92 208.73 62.93 230.26 62.93 230.26 67.84 214.62 67.84 214.62 74.3 229.16 74.3 229.16 79.21 214.62 79.21 214.62 87.09 230.83 87.09 230.83 92 208.73 92"/>
      <path class="cls-3" d="M266.88,75.23h4.35c2.82,0,4.57-.12,5.27-.36,.7-.24,1.25-.65,1.64-1.23,.4-.58,.6-1.31,.6-2.19,0-.98-.26-1.77-.79-2.38-.52-.6-1.26-.98-2.21-1.14-.48-.07-1.91-.1-4.28-.1h-4.58v7.39Zm-5.89,16.77v-29.08h12.37c3.11,0,5.37,.26,6.77,.78,1.42,.52,2.54,1.45,3.38,2.78,.85,1.34,1.27,2.86,1.27,4.58,0,2.19-.64,3.99-1.92,5.41-1.28,1.42-3.19,2.31-5.73,2.69,1.27,.74,2.31,1.55,3.13,2.44,.83,.89,1.94,2.46,3.33,4.72l3.55,5.67h-7.02l-4.21-6.35c-1.51-2.25-2.55-3.68-3.11-4.26-.55-.58-1.14-.99-1.77-1.2-.63-.22-1.62-.33-2.97-.33h-1.19v12.14h-5.89Z"/>
      <polygon class="cls-3" points="315.41 92 315.41 62.93 324.23 62.93 329.44 82.76 334.59 62.93 343.43 62.93 343.43 92 337.99 92 337.97 69.11 332.23 92 326.57 92 320.87 69.11 320.85 92 315.41 92"/>
      <path class="cls-2" d="M77.37,66.65l-24,20.38c-6.69,5.68-17.65,5.68-24.34,0L5.02,66.65c-6.69-5.68-6.69-14.99,0-20.67L29.02,25.59c4.12-3.5,9.86-4.84,15.23-4.03-.91,.47-1.76,1.03-2.54,1.7l-19.07,16.19c-5.32,4.52-5.32,11.91,0,16.43l19.07,16.2c5.32,4.52,14.02,4.52,19.34,0l19.07-16.2c.78-.66,1.45-1.39,2-2.16,.96,4.56-.63,9.43-4.75,12.93"/>
      <path class="cls-1" d="M13.99,25.66L37.99,5.28C44.69-.41,55.64-.41,62.34,5.28l24,20.38c6.69,5.69,6.69,14.99,0,20.67l-24,20.38c-4.12,3.5-9.86,4.84-15.23,4.03,.91-.47,1.76-1.03,2.54-1.7l19.07-16.2c5.32-4.52,5.32-11.91,0-16.43l-19.07-16.19c-5.32-4.52-14.02-4.52-19.34,0L11.24,36.43c-.78,.66-1.45,1.39-2,2.16-.96-4.56,.63-9.43,4.75-12.93"/>
      <path class="cls-2" d="M33.28,54.2l10.05,8.53c2.8,2.38,7.39,2.38,10.19,0l10.05-8.53c2.8-2.38,2.8-6.27,0-8.65l-10.05-8.53c-1.73-1.47-4.13-2.03-6.37-1.69,.38,.2,.74,.43,1.06,.71l7.98,6.78c2.23,1.89,2.23,4.99,0,6.88l-7.98,6.78c-2.23,1.89-5.87,1.89-8.1,0l-7.98-6.78c-.33-.28-.61-.58-.84-.9-.4,1.91,.26,3.95,1.99,5.41"/>
      <path class="cls-1" d="M59.81,37.04l-10.05-8.53c-2.8-2.38-7.39-2.38-10.19,0l-10.05,8.53c-2.8,2.38-2.8,6.27,0,8.65l10.05,8.53c1.73,1.47,4.13,2.03,6.37,1.69-.38-.2-.74-.43-1.06-.71l-7.98-6.78c-2.23-1.89-2.23-4.98,0-6.87l7.98-6.78c2.23-1.89,5.87-1.89,8.1,0l7.98,6.78c.33,.28,.61,.58,.84,.9,.4-1.91-.26-3.95-1.99-5.41"/>
      <path class="cls-4" d="M325.29,50.94V1.19h18.17V50.94h-18.17Zm-41.13,0V1.19h17.91V34.79h17.4v16.14h-35.3Zm-57.79,0L244.11,1.19h19.91l17.4,49.74h-19.23l-1.6-6.25h-13.49l-1.53,6.25h-19.2Zm23.72-18.08h7.44l-1.52-5.64c-.75-2.85-1.26-5.06-1.53-6.6-.28-1.53-.44-2.98-.51-4.34h-.3c-.07,1.36-.24,2.81-.51,4.34-.28,1.54-.79,3.75-1.53,6.6l-1.53,5.64Zm-44.95,18.08V1.19h18.17V50.94h-18.17Zm-56.45,0V1.19h17.91V17.73h10.9V1.19h17.87V50.94h-17.87v-17.54h-10.9v17.54h-17.91Zm-7.87-30c-1.64-1.57-3.29-2.74-5-3.5-1.69-.78-3.49-1.16-5.37-1.16-2.92,0-5.28,.91-7.05,2.7-1.77,1.8-2.67,4.2-2.67,7.19s.85,5.25,2.55,6.99c1.69,1.75,3.98,2.62,6.83,2.62,1.72,0,3.47-.37,5.24-1.1,1.79-.74,3.72-1.9,5.83-3.51l-.58,18.72c-1.95,.79-3.9,1.39-5.85,1.79-1.95,.39-3.9,.59-5.85,.59-2.42,0-4.76-.27-6.99-.81-2.25-.55-4.27-1.32-6.09-2.32-4.4-2.53-7.71-5.74-9.96-9.62-2.26-3.87-3.39-8.32-3.39-13.35,0-3.71,.64-7.16,1.93-10.33,1.28-3.17,3.14-5.96,5.58-8.39,2.47-2.45,5.34-4.3,8.58-5.56,3.26-1.26,6.77-1.89,10.55-1.89,2.02,0,4,.21,5.96,.63,1.96,.42,3.87,1.04,5.73,1.89V20.93Z"/>
      <rect class="cls-4" x="102.19" y="55.65" width="241.28" height="1.33"/>
    </g>
  </g>
</svg>